<?xml version="1.0" encoding="UTF-8"?>
<svg version="1.1" xmlns="http://www.w3.org/2000/svg" width="104" height="28">
<path d="M0 0 C2.51625 -0.0825 5.0325 -0.165 7.625 -0.25 C8.79603271 -0.30462402 8.79603271 -0.30462402 9.99072266 -0.36035156 C15.25218784 -0.44316721 17.89619115 0.71177461 22 4 C22.33 2.68 22.66 1.36 23 0 C26.22868746 -0.14584064 29.45652365 -0.23424106 32.6875 -0.3125 C33.59951172 -0.35439453 34.51152344 -0.39628906 35.45117188 -0.43945312 C40.11440808 -0.52423924 42.27671986 -0.5424601 46.109375 2.33203125 C48 5 48 5 48.5625 8 C47.88398909 11.61872485 46.49661422 13.3473474 44 16 C44.54140625 16.83144531 44.54140625 16.83144531 45.09375 17.6796875 C45.5578125 18.40414063 46.021875 19.12859375 46.5 19.875 C46.9640625 20.59429688 47.428125 21.31359375 47.90625 22.0546875 C49 24 49 24 49 26 C45.59961015 26.35042185 42.3854069 26.5412406 39 26 C36.375 23 36.375 23 35 20 C34.01 20.495 34.01 20.495 33 21 C32.34444881 23.52733235 32.34444881 23.52733235 32 26 C29.03 26 26.06 26 23 26 C22.505 21.05 22.505 21.05 22 16 C21.401875 16.639375 20.80375 17.27875 20.1875 17.9375 C16.40764294 21.50136523 12.98143974 21.09398943 8 21 C8 22.65 8 24.3 8 26 C5.36 26 2.72 26 0 26 C0 17.42 0 8.84 0 0 Z M8 7 C8 9.31 8 11.62 8 14 C9.65 13.67 11.3 13.34 13 13 C13.6814823 11.10820797 13.6814823 11.10820797 14 9 C13.34 8.34 12.68 7.68 12 7 C10.68 7 9.36 7 8 7 Z M32 7 C32 8.65 32 10.3 32 12 C33.98 11.34 35.96 10.68 38 10 C38 9.01 38 8.02 38 7 C36.02 7 34.04 7 32 7 Z " fill="#6366f1" transform="translate(29,1)"/>
<path d="M0 0 C1.22332031 -0.03738281 2.44664063 -0.07476562 3.70703125 -0.11328125 C7.77707269 0.38462505 9.35317704 1.40483042 12.1875 4.3125 C13.24086511 7.47259533 13.38782888 9.8678136 13.4375 13.1875 C13.46328125 14.21617188 13.4890625 15.24484375 13.515625 16.3046875 C13.03896422 20.67407798 11.2503387 23.2496613 8.1875 26.3125 C3.12894602 28.25809769 -2.68788106 27.98302168 -7.6875 26.0625 C-11.04208928 24.18393 -11.57712089 23.77971968 -12.8125 20.3125 C-13.1484375 17.03515625 -13.1484375 17.03515625 -13.1875 13.375 C-13.21585937 12.16972656 -13.24421875 10.96445313 -13.2734375 9.72265625 C-12.73447361 5.73523697 -11.61315018 4.13917853 -8.8125 1.3125 C-5.89002427 -0.14873786 -3.25396161 0.0647385 0 0 Z M-1.8125 4.3125 C-2.1425 5.6325 -2.4725 6.9525 -2.8125 8.3125 C-2.19375 8.43625 -1.575 8.56 -0.9375 8.6875 C1.1875 9.3125 1.1875 9.3125 3.1875 11.3125 C2.99921228 8.86769921 2.99921228 8.86769921 2.1875 6.3125 C0.21991727 4.95229849 0.21991727 4.95229849 -1.8125 4.3125 Z M-4.8125 10.3125 C-7.22371859 12.26883975 -7.22371859 12.26883975 -6.9375 15.9375 C-6.89625 17.05125 -6.855 18.165 -6.8125 19.3125 C-5.66323734 18.35828192 -4.51819459 17.39897955 -3.375 16.4375 C-2.73691406 15.90382813 -2.09882812 15.37015625 -1.44140625 14.8203125 C0.29555004 13.3902243 0.29555004 13.3902243 1.1875 11.3125 C-1.71323181 10.63448966 -1.71323181 10.63448966 -4.8125 10.3125 Z M6.1875 13.3125 C5.1975 14.7975 5.1975 14.7975 4.1875 16.3125 C3.1975 15.6525 2.2075 14.9925 1.1875 14.3125 C1.8475 16.2925 2.5075 18.2725 3.1875 20.3125 C0.5475 20.3125 -2.0925 20.3125 -4.8125 20.3125 C-4.01313358 22.44951805 -4.01313358 22.44951805 -2.0625 23.0625 C0.88202623 23.38966958 2.56133315 22.62558343 5.1875 21.3125 C7.53723818 19.41494856 7.53723818 19.41494856 7.3125 16.1875 C7.27125 15.23875 7.23 14.29 7.1875 13.3125 C6.8575 13.3125 6.5275 13.3125 6.1875 13.3125 Z " fill="#6366f1" transform="translate(90.8125,0.6875)"/>
<path d="M0 0 C2.97 0 5.94 0 9 0 C9 2.97 9 5.94 9 9 C9.66 9 10.32 9 11 9 C11.28875 8.071875 11.5775 7.14375 11.875 6.1875 C13 3 13 3 15 0 C17.3828125 -0.29296875 17.3828125 -0.29296875 20.125 -0.1875 C21.03507812 -0.16042969 21.94515625 -0.13335937 22.8828125 -0.10546875 C23.58148437 -0.07066406 24.28015625 -0.03585938 25 0 C24.54367188 0.80824219 24.08734375 1.61648437 23.6171875 2.44921875 C23.04226562 3.51785156 22.46734375 4.58648437 21.875 5.6875 C21.29492188 6.74324219 20.71484375 7.79898437 20.1171875 8.88671875 C18.71417051 11.88527238 18.71417051 11.88527238 19.65625 14.59375 C20.0996875 15.3878125 20.543125 16.181875 21 17 C21.42539062 17.81082031 21.85078125 18.62164063 22.2890625 19.45703125 C22.72992187 20.23433594 23.17078125 21.01164062 23.625 21.8125 C24.40875 23.194375 25.1925 24.57625 26 26 C22.37 26 18.74 26 15 26 C11 19.25 11 19.25 11 17 C10.34 17 9.68 17 9 17 C9 19.97 9 22.94 9 26 C6.03 26 3.06 26 0 26 C0 17.42 0 8.84 0 0 Z " fill="#6366f1" transform="translate(2,1)"/>
</svg>
